<svg width="20" height="20" viewBox="0 0 20 20" fill="none" xmlns="http://www.w3.org/2000/svg">
<g id="Frame">
<path id="Vector" d="M17.4542 14.0321C16.9073 10.7414 15.2046 8.29105 13.7245 6.85177C13.2937 6.43295 13.0784 6.22355 12.6026 6.02975C12.1269 5.83594 11.718 5.83594 10.9001 5.83594H9.10378C8.28596 5.83594 7.87703 5.83594 7.4013 6.02975C6.92557 6.22355 6.71021 6.43295 6.27948 6.85177C4.7993 8.29105 3.09663 10.7414 2.54968 14.0321C2.14273 16.4804 4.40134 18.3359 6.92555 18.3359H13.0784C15.6025 18.3359 17.8612 16.4804 17.4542 14.0321Z" stroke="#3C3C4C" stroke-width="1.2" stroke-linecap="round" stroke-linejoin="round"/>
<path id="Vector_2" d="M6.04979 3.69979C5.87786 3.44955 5.62867 3.10989 6.14343 3.03244C6.67254 2.95282 7.22195 3.31501 7.75973 3.30757C8.24625 3.30084 8.4941 3.08505 8.76002 2.77696C9.04002 2.45254 9.4736 1.66406 10.0026 1.66406C10.5316 1.66406 10.9652 2.45254 11.2452 2.77696C11.5111 3.08505 11.7589 3.30084 12.2454 3.30757C12.7833 3.31501 13.3327 2.95282 13.8618 3.03244C14.3765 3.10989 14.1274 3.44955 13.9554 3.69979L13.178 4.83126C12.8455 5.31528 12.6793 5.55729 12.3313 5.69401C11.9834 5.83073 11.5337 5.83073 10.6344 5.83073H9.37077C8.47152 5.83073 8.02185 5.83073 7.6739 5.69401C7.32595 5.55729 7.15969 5.31528 6.82715 4.83126L6.04979 3.69979Z" stroke="#3C3C4C" stroke-width="1.2" stroke-linejoin="round"/>
<path id="Vector_3" d="M11.3579 10.7612C11.1777 10.0961 10.2607 9.49592 9.15995 9.94492C8.05919 10.3938 7.88434 11.8384 9.54936 11.9919C10.3019 12.0613 10.7925 11.9114 11.2417 12.3353C11.6909 12.7592 11.7744 13.938 10.626 14.2557C9.4777 14.5733 8.34061 14.077 8.2168 13.3721M9.87036 9.15625V9.78992M9.87036 14.3534V14.9896" stroke="#3C3C4C" stroke-width="1.2" stroke-linecap="round" stroke-linejoin="round"/>
</g>
</svg>
