<svg width="275" height="81" viewBox="0 0 275 81" fill="none" xmlns="http://www.w3.org/2000/svg">
<path d="M152.59 30.0918L142.6 38.9975H142.578L122.102 14.0547H139.425L152.59 30.0918Z" fill="#81818C"/>
<path d="M180.889 63.7995H163.572L151.434 49.0241L146.622 43.1489L151.383 38.8848H160.442L180.889 63.7995Z" fill="#FFC000"/>
<path d="M194.94 0L160.441 38.8845H160.419L151.433 49.0239L133.366 69.3702L104.604 80.6531L146.622 43.1487L151.382 38.8845L194.94 0Z" fill="#C55A11"/>
<path d="M160.447 38.873L151.434 49.0237L152.985 50.9107L160.447 38.873Z" fill="#CC9900"/>
<path d="M181.886 48.9362C181.04 48.6264 180.273 48.1757 179.602 47.5786C178.931 46.9815 178.395 46.2211 178.011 45.3085C177.622 44.3904 177.43 43.3708 177.43 42.2273C177.43 41.0838 177.639 39.9797 178.039 38.9658C178.445 37.9462 179.032 37.0675 179.782 36.3127C180.538 35.5578 181.429 34.9776 182.467 34.5608C183.5 34.144 184.605 33.9355 185.795 33.9355C186.45 33.9355 187.245 33.9975 188.187 34.1158C189.123 34.2341 189.941 34.3918 190.641 34.5721L190.669 39.4164L190.268 39.5066C190.285 39.039 188.774 34.4763 185.271 34.4763C184.763 34.4763 184.284 34.7185 183.849 35.1917C183.409 35.6705 183.048 36.3746 182.778 37.2928C182.501 38.2166 182.366 39.27 182.366 40.4473C182.366 41.3035 182.45 42.1372 182.625 42.9483C182.8 43.7595 183.088 44.4805 183.483 45.1001C183.883 45.7198 184.379 46.2155 184.983 46.576C185.581 46.9421 186.286 47.1224 187.087 47.1224C187.696 47.1224 188.311 47.021 188.909 46.8125C189.507 46.6041 190.02 46.3056 190.421 45.8944L190.663 46.2323C189.828 47.2688 188.886 48.0518 187.848 48.5813C186.805 49.1108 185.694 49.3699 184.509 49.3699C183.612 49.3699 182.732 49.2178 181.886 48.9136H181.881L181.886 48.9362Z" fill="white"/>
<path d="M265.329 40.6C265.283 41.5914 265.396 42.504 265.65 43.332C265.904 44.1601 266.282 44.8529 266.773 45.4219C267.263 45.9908 267.844 46.4245 268.516 46.7175C269.187 47.0104 269.914 47.1568 270.693 47.1568C271.392 47.1568 272.097 47.0442 272.825 46.8076C273.553 46.571 274.117 46.2556 274.528 45.85L274.805 46.1598C273.09 48.3341 270.879 49.4213 268.183 49.4213C267.122 49.4213 266.118 49.2579 265.176 48.9312C264.24 48.6045 263.422 48.1313 262.723 47.4948C262.029 46.8639 261.487 46.0922 261.098 45.1797C260.709 44.2615 260.517 43.2588 260.517 42.1604C260.517 41.062 260.726 39.9804 261.126 38.9721C261.532 37.9638 262.113 37.0851 262.858 36.3302C263.603 35.5754 264.499 34.9952 265.543 34.5784C266.586 34.1615 267.703 33.9531 268.91 33.9531C270.952 33.9531 272.532 34.539 273.649 35.705C274.765 36.8766 275.188 38.5046 274.923 40.6H265.329ZM266.169 36.043C265.69 37.0682 265.408 38.4144 265.329 40.0818C266.192 40.0987 270.027 40.155 270.597 40.0818C270.642 39.4509 270.597 38.2173 270.456 37.4287C270.321 36.6344 270.05 35.9528 269.627 35.3726C269.209 34.7924 268.702 34.5052 268.115 34.5052C267.297 34.5052 266.648 35.0178 266.169 36.0486V36.043Z" fill="white"/>
<path d="M253.489 34.267C253.669 32.9208 255.728 30.1493 259.632 30.4873V33.6587C259.101 33.5122 255.006 32.8081 253.98 34.3853C255.204 34.712 256.197 35.2584 256.952 36.0302C257.708 36.8019 258.086 37.737 258.086 38.8298C258.086 39.3987 257.968 40.0014 257.714 40.6267C257.471 41.2576 257.003 41.8772 256.321 42.5025C255.638 43.1221 254.781 43.5896 253.765 43.9051C252.744 44.2205 251.712 44.3726 250.669 44.3726L249.349 44.3107C249.039 44.4571 248.79 44.6486 248.599 44.8909C248.407 45.1331 248.305 45.3697 248.305 45.5893C248.305 46.2428 248.886 46.6371 250.048 46.7779L253.974 47.2961C254.583 47.375 255.288 47.5384 256.078 47.7862C256.868 48.0284 257.533 48.4171 258.081 48.9635C258.633 49.4986 258.91 50.1577 258.91 50.9294C258.91 51.5378 258.724 52.1743 258.34 52.8334C257.962 53.498 257.381 54.112 256.608 54.6922C255.836 55.2724 254.854 55.74 253.664 56.0949C252.479 56.4497 251.131 56.63 249.62 56.63C247.702 56.63 246.128 56.3652 244.915 55.8357C243.697 55.3062 243.093 54.6359 243.093 53.8248C243.093 53.7797 243.093 53.7121 243.11 53.6163C243.121 53.5149 243.184 53.346 243.291 53.0981C243.404 52.8559 243.669 52.5799 244.075 52.2701C244.481 51.9602 244.921 51.6955 245.395 51.4645C245.868 51.228 246.37 50.997 246.906 50.7661C247.448 50.5295 247.803 50.3717 247.967 50.2985C247.234 50.1971 246.557 50 245.942 49.7014C245.333 49.4085 244.898 49.0705 244.656 48.6819C244.413 48.2988 244.289 47.9383 244.289 47.6172C244.289 47.0877 244.565 46.5751 245.118 46.0794C245.671 45.5781 246.844 44.9641 248.644 44.2374C247.453 44.0346 246.489 43.6516 245.727 43.0939C244.972 42.5363 244.47 41.9223 244.216 41.2632C243.962 40.5985 243.832 40.0296 243.832 39.5395C243.832 38.7678 244.018 38.0468 244.402 37.3765C244.78 36.7061 245.31 36.1259 245.993 35.6246C246.675 35.1233 247.487 34.7402 248.429 34.4698C249.366 34.1994 250.364 34.0586 251.402 34.0586C252.011 34.0586 252.711 34.1319 253.483 34.267H253.478H253.489ZM254.194 51.504C253.686 51.104 252.97 50.8731 252.051 50.7886L248.587 50.3886C248.181 50.6309 247.865 50.9745 247.657 51.4082C247.442 51.842 247.335 52.3039 247.335 52.7939C247.335 53.6501 247.662 54.3993 248.317 55.0471C248.971 55.7005 249.879 56.0216 251.041 56.0216C251.571 56.0216 252.141 55.9146 252.756 55.7005C253.365 55.4921 253.889 55.126 254.318 54.6134C254.747 54.1064 254.961 53.5656 254.961 52.9967C254.961 52.3884 254.707 51.8814 254.2 51.4927L254.194 51.504ZM248.892 41.2801C249.117 42.0913 249.411 42.7278 249.783 43.1841C250.15 43.6403 250.584 43.8713 251.069 43.8713C251.396 43.8713 251.74 43.7361 252.113 43.4713C252.479 43.2066 252.79 42.7278 253.043 42.0349C253.297 41.3421 253.427 40.5535 253.427 39.6522C253.427 38.7509 253.297 37.9285 253.043 37.0441C252.79 36.1597 252.462 35.5345 252.062 35.1514C251.661 34.7796 251.267 34.5825 250.883 34.5825C250.212 34.5825 249.653 34.9824 249.213 35.7711C248.779 36.5597 248.553 37.568 248.553 38.7903C248.553 39.624 248.666 40.4464 248.892 41.2632V41.2745V41.2801Z" fill="white"/>
<path d="M198.036 37.163C199.097 36.0646 200.061 35.3098 200.919 34.8929C201.776 34.4761 202.594 34.2677 203.372 34.2677C203.818 34.2677 204.297 34.3465 204.794 34.4986C205.296 34.6507 205.77 34.9154 206.215 35.2929C206.661 35.6646 207.05 36.1885 207.377 36.8645C207.704 37.5348 207.868 38.3685 207.868 39.3655V49.3922H203.333V39.3937C203.333 38.6839 203.186 38.0868 202.904 37.608C202.622 37.1292 202.284 36.8138 201.911 36.6617C201.533 36.5096 201.189 36.4307 200.89 36.4307C199.954 36.4307 199.001 36.8645 198.042 37.7432V49.3866H193.507V34.0818C193.507 32.9214 193.49 31.7779 193.45 30.6513C193.394 29.0909 194.466 27.7165 195.994 27.3616L198.042 26.8828V37.1574H198.036V37.163Z" fill="white"/>
<path d="M231.789 37.7502V49.3936H227.254V40.6455C227.254 39.7612 227.243 38.9162 227.209 38.1163C227.147 36.4602 228.264 34.99 229.883 34.6013L231.789 34.207V37.1643C232.85 36.049 233.82 35.2829 234.694 34.883C235.574 34.4774 236.392 34.2746 237.148 34.2746C237.904 34.2746 238.671 34.4718 239.382 34.8717C240.098 35.2717 240.645 35.8744 241.034 36.6855C241.423 37.4967 241.615 38.3923 241.615 39.3668V49.3936H237.08V39.395C237.08 38.4599 236.843 37.7333 236.375 37.215C235.901 36.6968 235.32 36.4377 234.632 36.4377C233.713 36.4377 232.759 36.8714 231.784 37.7502H231.789Z" fill="white"/>
<path d="M224.801 47.0719C224.722 47.1113 224.609 47.1564 224.462 47.2127C224.316 47.2634 224.197 47.2916 224.09 47.2916C223.453 47.2916 223.137 46.7902 223.137 45.7988V38.5154C223.137 37.4789 222.894 36.6002 222.415 35.8735C221.935 35.1525 221.253 34.6512 220.362 34.3695C219.47 34.0879 218.506 33.9414 217.468 33.9414C216.368 33.9414 215.2 34.0822 213.971 34.3526C212.747 34.6286 211.619 35.0117 210.603 35.4961L210.592 39.6364H211.066C211.37 38.6675 213.328 34.4934 216.673 34.4934C217.225 34.4934 217.694 34.7807 218.083 35.3609C218.472 35.9411 218.664 36.6847 218.664 37.6028V40.5602C216.357 40.9432 214.586 41.4107 213.362 41.9459C212.138 42.481 211.28 43.0668 210.789 43.6977C210.299 44.3286 210.056 45.0271 210.056 45.7988C210.056 46.5706 210.271 47.2183 210.699 47.8098C211.128 48.4013 211.63 48.8125 212.211 49.0434C212.792 49.28 213.333 49.3927 213.824 49.3927C214.557 49.3927 215.319 49.1899 216.109 48.7843C216.898 48.3787 217.75 47.6859 218.664 46.7114C218.765 47.5451 219.053 48.1985 219.527 48.6773C220.001 49.1561 220.627 49.3927 221.428 49.3927C222.161 49.3927 222.844 49.2012 223.481 48.8125C224.118 48.4294 224.626 47.9563 225.015 47.4099L224.801 47.0719ZM218.669 46.0974C218.359 46.441 218.004 46.7226 217.581 46.9367C217.163 47.1451 216.785 47.2578 216.458 47.2578C215.922 47.2578 215.477 47.0156 215.105 46.5424C214.738 46.0636 214.552 45.4102 214.552 44.5765C214.552 43.54 214.89 42.7458 215.573 42.1937C216.255 41.6473 217.282 41.2699 218.653 41.0671V46.0974H218.664H218.669Z" fill="white"/>
<path d="M89.4304 26.459H83.9138C82.1426 29.4276 78.809 37.2011 77.0999 42.5186L70.4777 26.459H63.0659C63.2182 29.5233 63.2972 33.3481 63.2972 37.9221C63.2972 42.4961 63.2182 46.3209 63.0659 49.3852H68.4922C68.3399 46.3434 68.261 42.5412 68.261 37.9897C68.261 35.3929 68.2835 33.0721 68.3343 30.9992L75.0467 49.3852H77.6978C78.1321 47.2334 82.0073 34.2607 84.162 30.9203C84.2128 33.0158 84.2353 35.3478 84.2353 37.9221C84.2353 42.5017 84.1564 46.3209 84.0041 49.3852H89.4304C89.2781 46.3434 89.1991 42.5412 89.1991 37.9897C89.1991 33.4383 89.2781 29.4388 89.4304 26.459Z" fill="white"/>
<path d="M93.1473 28.1729C93.6663 27.7053 94.2755 27.4688 94.9693 27.4688C95.6631 27.4688 96.261 27.7053 96.7574 28.1729C97.2594 28.6404 97.5076 29.1812 97.5076 29.7952C97.5076 30.4092 97.2425 30.9443 96.7122 31.4175C96.182 31.885 95.5672 32.1216 94.8734 32.1216C94.1796 32.1216 93.6155 31.885 93.1135 31.4175C92.6115 30.9499 92.3633 30.4092 92.3633 29.7952C92.3633 29.1812 92.6228 28.646 93.1417 28.1729H93.1473ZM92.6397 40.6725C92.6397 39.8106 92.6228 38.9488 92.5889 38.0757C92.5269 36.4139 93.6719 34.9494 95.2964 34.5776L97.1353 34.1607V49.3811H92.634V40.6725H92.6397Z" fill="white"/>
<path d="M104.434 37.7092V49.3863H99.9048V40.6158C99.9048 39.7314 99.8935 38.8808 99.8653 38.0753C99.8089 36.4136 100.915 34.9434 102.533 34.5547L104.44 34.166V37.129C105.495 36.008 106.465 35.2419 107.345 34.8363C108.219 34.4308 109.037 34.2223 109.793 34.2223C110.549 34.2223 111.316 34.4195 112.027 34.8194C112.743 35.2194 113.29 35.8221 113.679 36.6389C114.069 37.4557 114.26 38.3513 114.26 39.3258V49.3807H109.731V39.354C109.731 38.4189 109.494 37.6866 109.026 37.1684C108.558 36.6502 107.977 36.391 107.283 36.391C106.363 36.391 105.416 36.8304 104.434 37.7035V37.7092Z" fill="white"/>
<path d="M9.79297 27.9986C6.02504 27.9986 2.26933 27.9129 0 27.7539V33.3691H0.47709C0.605542 33.0143 1.87171 28.5246 7.24225 28.5246C7.32177 31.5157 7.36459 34.88 7.36459 38.6112C7.36459 42.3424 7.30343 45.7923 7.1811 49.3767H12.4109C12.2886 45.7862 12.2274 42.1956 12.2274 38.6112C12.2274 35.0268 12.2703 31.5157 12.3498 28.5246C17.7203 28.5246 18.9865 33.0143 19.1149 33.3691H19.5921V27.7539C17.3227 27.9191 13.567 27.9986 9.7991 27.9986H9.79297Z" fill="white"/>
<path d="M44.0149 40.8581C43.9721 41.8674 44.0822 42.791 44.3391 43.629C44.596 44.467 44.9753 45.1705 45.4707 45.7516C45.9662 46.3265 46.5534 46.7669 47.2324 47.0667C47.9113 47.3664 48.6453 47.5132 49.4283 47.5132C50.1317 47.5132 50.8474 47.397 51.5814 47.1584C52.3154 46.9199 52.8843 46.5957 53.3002 46.1859L53.5816 46.4978C51.8505 48.706 49.6179 49.807 46.8959 49.807C45.8255 49.807 44.8101 49.6418 43.862 49.3115C42.9139 48.9812 42.0882 48.498 41.3847 47.8557C40.6813 47.2135 40.1369 46.4305 39.7454 45.5069C39.354 44.5771 39.1582 43.5556 39.1582 42.4424C39.1582 41.3291 39.3662 40.2281 39.776 39.2066C40.1858 38.1851 40.773 37.2921 41.5254 36.5275C42.2778 35.7629 43.1831 35.1695 44.2351 34.7475C45.2872 34.3254 46.4188 34.1113 47.6361 34.1113C49.6974 34.1113 51.2939 34.7047 52.4194 35.8913C53.5449 37.078 53.973 38.7356 53.7039 40.8581H44.0211H44.0149ZM44.8652 36.2339C44.3819 37.2737 44.0944 38.6439 44.0149 40.3321C44.8835 40.3504 48.7616 40.4055 49.3365 40.3321C49.3794 39.6898 49.3365 38.442 49.1958 37.6407C49.0613 36.8333 48.786 36.1421 48.3578 35.5549C47.9358 34.9677 47.422 34.6741 46.8287 34.6741C46.0029 34.6741 45.3484 35.194 44.8652 36.24V36.2339Z" fill="white"/>
<path d="M121.589 40.8581C121.546 41.8674 121.656 42.791 121.913 43.629C122.17 44.467 122.549 45.1705 123.045 45.7516C123.54 46.3265 124.128 46.7669 124.807 47.0667C125.486 47.3664 126.22 47.5132 127.003 47.5132C127.706 47.5132 128.422 47.397 129.156 47.1584C129.89 46.9199 130.458 46.5957 130.874 46.1859L131.156 46.4978C129.425 48.706 127.192 49.807 124.47 49.807C123.4 49.807 122.384 49.6418 121.436 49.3115C120.488 48.9812 119.662 48.498 118.959 47.8557C118.256 47.2135 117.711 46.4305 117.32 45.5069C116.928 44.5771 116.732 43.5556 116.732 42.4424C116.732 41.3291 116.94 40.2281 117.35 39.2066C117.76 38.1851 118.347 37.2921 119.1 36.5275C119.852 35.7629 120.757 35.1695 121.809 34.7475C122.861 34.3254 123.993 34.1113 125.21 34.1113C127.272 34.1113 128.868 34.7047 129.994 35.8913C131.119 37.078 131.547 38.7356 131.278 40.8581H121.595H121.589ZM122.439 36.2339C121.956 37.2737 121.669 38.6439 121.589 40.3321C122.458 40.3504 126.336 40.4055 126.911 40.3321C126.954 39.6898 126.911 38.442 126.77 37.6407C126.635 36.8333 126.36 36.1421 125.932 35.5549C125.51 34.9677 124.996 34.6741 124.403 34.6741C123.577 34.6741 122.923 35.194 122.439 36.24V36.2339Z" fill="white"/>
<path d="M26.6583 36.9604C27.7287 35.8471 28.7013 35.0764 29.5699 34.6543C30.4385 34.2323 31.2642 34.0182 32.0472 34.0182C32.4998 34.0182 32.983 34.0977 33.4846 34.2506C33.9923 34.4035 34.4694 34.6727 34.9221 35.058C35.3747 35.4373 35.7662 35.9694 36.0965 36.6545C36.4268 37.3335 36.5919 38.1837 36.5919 39.193V49.3713H32.0105V39.2236C32.0105 38.5018 31.8637 37.8962 31.5762 37.413C31.2887 36.9298 30.9523 36.6056 30.573 36.4527C30.1938 36.2998 29.8451 36.2202 29.5393 36.2202C28.5912 36.2202 27.6309 36.6606 26.6644 37.5537V49.3713H22.0829V33.8347C22.0829 32.6541 22.0646 31.4981 22.0279 30.3542C21.9728 28.77 23.0555 27.3754 24.5969 27.0145L26.6644 26.5312V36.9604H26.6583Z" fill="white"/>
</svg>
