<svg width="185" height="54" viewBox="0 0 185 54" fill="none" xmlns="http://www.w3.org/2000/svg">
<g id="Group 34808">
<g id="Group">
<path id="Vector" d="M102.164 20.1475L95.4757 26.1103H95.4606L81.7515 9.41016H93.3495L102.164 20.1475Z" fill="#81818C"/>
<path id="Vector_2" d="M121.111 42.7164H109.517L101.39 32.8238L98.1685 28.8902L101.356 26.0352H107.421L121.111 42.7164Z" fill="#FFC000"/>
<path id="Vector_3" d="M130.519 0L107.421 26.0345H107.406L101.39 32.8232L89.2931 46.4457L70.0361 54L98.1682 28.8895L101.356 26.0345L130.519 0Z" fill="#C55A11"/>
<path id="Vector_4" d="M107.425 26.0273L101.39 32.8235L102.428 34.087L107.425 26.0273Z" fill="#CC9900"/>
</g>
<path id="Vector_5" d="M121.779 32.7641C121.213 32.5567 120.699 32.255 120.25 31.8552C119.8 31.4554 119.442 30.9463 119.185 30.3353C118.924 29.7206 118.796 29.0379 118.796 28.2723C118.796 27.5067 118.936 26.7675 119.204 26.0886C119.476 25.406 119.868 24.8176 120.371 24.3123C120.877 23.8069 121.474 23.4184 122.168 23.1393C122.86 22.8602 123.6 22.7207 124.397 22.7207C124.835 22.7207 125.367 22.7622 125.998 22.8414C126.625 22.9206 127.172 23.0262 127.641 23.1469L127.66 26.3903L127.391 26.4507C127.403 26.1377 126.391 23.0828 124.045 23.0828C123.705 23.0828 123.384 23.2449 123.094 23.5617C122.799 23.8823 122.557 24.3538 122.376 24.9685C122.191 25.587 122.1 26.2923 122.1 27.0805C122.1 27.6538 122.157 28.212 122.274 28.7551C122.391 29.2982 122.584 29.7809 122.848 30.1958C123.116 30.6106 123.449 30.9425 123.853 31.1839C124.253 31.429 124.725 31.5497 125.261 31.5497C125.669 31.5497 126.081 31.4818 126.481 31.3423C126.882 31.2028 127.225 31.0029 127.493 30.7275L127.656 30.9538C127.097 31.6478 126.466 32.172 125.771 32.5265C125.073 32.8811 124.329 33.0545 123.536 33.0545C122.935 33.0545 122.346 32.9527 121.779 32.7491H121.776L121.779 32.7641Z" fill="white"/>
<path id="Vector_6" d="M177.647 27.1828C177.617 27.8465 177.692 28.4575 177.862 29.0119C178.032 29.5663 178.285 30.0302 178.614 30.4111C178.942 30.7921 179.331 31.0825 179.781 31.2786C180.23 31.4747 180.717 31.5728 181.238 31.5728C181.707 31.5728 182.179 31.4973 182.666 31.3389C183.153 31.1805 183.531 30.9693 183.806 30.6978L183.991 30.9052C182.843 32.361 181.363 33.0889 179.558 33.0889C178.848 33.0889 178.175 32.9795 177.545 32.7608C176.918 32.542 176.37 32.2252 175.902 31.7991C175.437 31.3766 175.075 30.86 174.814 30.249C174.554 29.6342 174.425 28.9629 174.425 28.2275C174.425 27.492 174.565 26.7679 174.833 26.0928C175.105 25.4177 175.494 24.8294 175.993 24.324C176.491 23.8186 177.092 23.4301 177.79 23.1511C178.489 22.872 179.237 22.7324 180.045 22.7324C181.412 22.7324 182.469 23.1247 183.217 23.9053C183.965 24.6898 184.248 25.7798 184.071 27.1828H177.647ZM178.209 24.1316C177.888 24.818 177.7 25.7194 177.647 26.8358C178.225 26.8471 180.793 26.8848 181.174 26.8358C181.204 26.4134 181.174 25.5874 181.08 25.0594C180.989 24.5276 180.808 24.0713 180.525 23.6828C180.245 23.2944 179.905 23.102 179.512 23.102C178.965 23.102 178.53 23.4452 178.209 24.1354V24.1316Z" fill="white"/>
<path id="Vector_7" d="M169.72 22.9422C169.84 22.0408 171.219 20.1853 173.832 20.4115V22.5349C173.477 22.4368 170.735 21.9654 170.048 23.0214C170.868 23.2402 171.532 23.606 172.038 24.1227C172.544 24.6394 172.798 25.2654 172.798 25.9971C172.798 26.378 172.718 26.7816 172.548 27.2002C172.386 27.6226 172.072 28.0375 171.615 28.4561C171.158 28.871 170.584 29.184 169.905 29.3952C169.221 29.6064 168.53 29.7082 167.831 29.7082L166.948 29.6667C166.74 29.7648 166.574 29.893 166.445 30.0552C166.317 30.2174 166.249 30.3758 166.249 30.5229C166.249 30.9604 166.638 31.2244 167.416 31.3187L170.044 31.6656C170.452 31.7184 170.924 31.8278 171.453 31.9937C171.982 32.1559 172.427 32.4162 172.794 32.782C173.164 33.1403 173.349 33.5815 173.349 34.0982C173.349 34.5056 173.224 34.9317 172.967 35.373C172.714 35.818 172.325 36.2291 171.808 36.6176C171.291 37.006 170.634 37.3191 169.837 37.5567C169.044 37.7943 168.141 37.915 167.129 37.915C165.845 37.915 164.791 37.7377 163.979 37.3832C163.163 37.0287 162.759 36.5799 162.759 36.0368C162.759 36.0066 162.759 35.9613 162.771 35.8972C162.778 35.8293 162.82 35.7162 162.891 35.5503C162.967 35.3881 163.145 35.2033 163.416 34.9958C163.688 34.7884 163.983 34.6112 164.3 34.4565C164.617 34.2981 164.953 34.1435 165.312 33.9889C165.675 33.8305 165.913 33.7249 166.022 33.6758C165.531 33.6079 165.078 33.4759 164.666 33.2761C164.259 33.0799 163.968 32.8536 163.805 32.5934C163.643 32.337 163.56 32.0956 163.56 31.8806C163.56 31.5261 163.745 31.1829 164.115 30.851C164.485 30.5153 165.271 30.1042 166.475 29.6177C165.679 29.4819 165.033 29.2255 164.523 28.8521C164.017 28.4787 163.681 28.0676 163.511 27.6264C163.341 27.1813 163.254 26.8004 163.254 26.4723C163.254 25.9556 163.379 25.4729 163.635 25.0241C163.888 24.5753 164.243 24.1868 164.7 23.8511C165.157 23.5155 165.701 23.259 166.332 23.078C166.959 22.8969 167.627 22.8027 168.322 22.8027C168.73 22.8027 169.198 22.8517 169.716 22.9422H169.712H169.72ZM170.192 34.4829C169.852 34.2151 169.372 34.0605 168.757 34.0039L166.438 33.7362C166.166 33.8983 165.954 34.1284 165.815 34.4188C165.671 34.7092 165.599 35.0185 165.599 35.3466C165.599 35.9199 165.818 36.4215 166.256 36.8552C166.695 37.2927 167.303 37.5076 168.081 37.5076C168.436 37.5076 168.817 37.436 169.229 37.2927C169.636 37.1531 169.988 36.908 170.275 36.5648C170.562 36.2253 170.705 35.8633 170.705 35.4824C170.705 35.075 170.535 34.7356 170.195 34.4754L170.192 34.4829ZM166.642 27.6377C166.793 28.1808 166.989 28.607 167.238 28.9125C167.484 29.2179 167.775 29.3726 168.099 29.3726C168.318 29.3726 168.549 29.2821 168.798 29.1048C169.044 28.9275 169.251 28.607 169.421 28.1431C169.591 27.6792 169.678 27.1512 169.678 26.5477C169.678 25.9443 169.591 25.3937 169.421 24.8015C169.251 24.2094 169.032 23.7908 168.764 23.5343C168.496 23.2854 168.232 23.1534 167.975 23.1534C167.525 23.1534 167.151 23.4212 166.857 23.9492C166.566 24.4772 166.415 25.1523 166.415 25.9707C166.415 26.5289 166.491 27.0795 166.642 27.6264V27.6339V27.6377Z" fill="white"/>
<path id="Vector_8" d="M132.592 24.881C133.302 24.1456 133.948 23.6402 134.522 23.3611C135.096 23.082 135.643 22.9425 136.165 22.9425C136.463 22.9425 136.784 22.9953 137.116 23.0971C137.452 23.1989 137.77 23.3762 138.068 23.6289C138.366 23.8778 138.627 24.2285 138.846 24.6811C139.065 25.1299 139.174 25.6881 139.174 26.3556V33.0689H136.138V26.3745C136.138 25.8993 136.04 25.4995 135.851 25.1789C135.662 24.8584 135.436 24.6472 135.186 24.5453C134.933 24.4435 134.703 24.3907 134.503 24.3907C133.876 24.3907 133.238 24.6811 132.596 25.2695V33.0651H129.559V22.818C129.559 22.0411 129.548 21.2755 129.521 20.5212C129.484 19.4765 130.201 18.5562 131.225 18.3186L132.596 17.998V24.8772H132.592V24.881Z" fill="white"/>
<path id="Vector_9" d="M155.191 25.2746V33.0702H152.154V27.2131C152.154 26.621 152.147 26.0553 152.124 25.5197C152.083 24.4109 152.83 23.4266 153.914 23.1663L155.191 22.9023V24.8824C155.901 24.1356 156.55 23.6227 157.136 23.3549C157.725 23.0834 158.273 22.9476 158.779 22.9476C159.285 22.9476 159.798 23.0796 160.274 23.3474C160.754 23.6152 161.12 24.0187 161.381 24.5618C161.641 25.1049 161.77 25.7046 161.77 26.357V33.0702H158.733V26.3759C158.733 25.7498 158.575 25.2633 158.261 24.9163C157.944 24.5693 157.555 24.3958 157.094 24.3958C156.479 24.3958 155.84 24.6863 155.187 25.2746H155.191Z" fill="white"/>
<path id="Vector_10" d="M150.512 31.5159C150.459 31.5423 150.383 31.5725 150.285 31.6102C150.187 31.6442 150.108 31.663 150.036 31.663C149.609 31.663 149.398 31.3273 149.398 30.6636V25.787C149.398 25.0931 149.235 24.5047 148.914 24.0182C148.593 23.5355 148.136 23.1998 147.54 23.0112C146.943 22.8227 146.297 22.7246 145.602 22.7246C144.866 22.7246 144.084 22.8189 143.261 22.9999C142.441 23.1847 141.686 23.4412 141.006 23.7655L140.998 26.5376H141.316C141.52 25.8889 142.83 23.0942 145.07 23.0942C145.44 23.0942 145.753 23.2866 146.014 23.675C146.274 24.0635 146.403 24.5613 146.403 25.1761V27.1561C144.858 27.4126 143.672 27.7256 142.853 28.0839C142.033 28.4422 141.459 28.8344 141.131 29.2568C140.802 29.6792 140.64 30.1469 140.64 30.6636C140.64 31.1803 140.783 31.614 141.07 32.01C141.357 32.406 141.693 32.6813 142.082 32.8359C142.471 32.9943 142.834 33.0698 143.162 33.0698C143.653 33.0698 144.163 32.934 144.692 32.6625C145.221 32.3909 145.791 31.927 146.403 31.2745C146.471 31.8327 146.663 32.2702 146.981 32.5908C147.298 32.9114 147.717 33.0698 148.253 33.0698C148.744 33.0698 149.201 32.9415 149.628 32.6813C150.055 32.4248 150.395 32.108 150.655 31.7422L150.512 31.5159ZM146.407 30.8635C146.199 31.0935 145.961 31.2821 145.678 31.4254C145.398 31.5649 145.145 31.6404 144.926 31.6404C144.567 31.6404 144.269 31.4782 144.02 31.1614C143.774 30.8408 143.65 30.4033 143.65 29.8452C143.65 29.1512 143.876 28.6194 144.333 28.2498C144.79 27.884 145.478 27.6313 146.395 27.4955V30.8635H146.403H146.407Z" fill="white"/>
<path id="Vector_11" d="M59.8765 17.7168H56.183C54.9971 19.7044 52.7651 24.909 51.6208 28.4693L47.1871 17.7168H42.2246C42.3266 19.7685 42.3795 22.3293 42.3795 25.3918C42.3795 28.4542 42.3266 31.015 42.2246 33.0667H45.8577C45.7557 31.0301 45.7029 28.4844 45.7029 25.437C45.7029 23.6984 45.718 22.1445 45.752 20.7566L50.2461 33.0667H52.0212C52.312 31.626 54.9065 22.9403 56.3492 20.7038C56.3831 22.1068 56.3983 23.6682 56.3983 25.3918C56.3983 28.458 56.3454 31.015 56.2434 33.0667H59.8765C59.7745 31.0301 59.7217 28.4844 59.7217 25.437C59.7217 22.3897 59.7745 19.7119 59.8765 17.7168Z" fill="white"/>
<path id="Vector_12" d="M62.3653 18.8621C62.7127 18.549 63.1206 18.3906 63.5851 18.3906C64.0497 18.3906 64.45 18.549 64.7823 18.8621C65.1184 19.1751 65.2846 19.5372 65.2846 19.9482C65.2846 20.3593 65.1071 20.7176 64.7521 21.0344C64.3971 21.3475 63.9855 21.5059 63.5209 21.5059C63.0564 21.5059 62.6787 21.3475 62.3426 21.0344C62.0065 20.7214 61.8403 20.3593 61.8403 19.9482C61.8403 19.5372 62.0141 19.1789 62.3615 18.8621H62.3653ZM62.0254 27.231C62.0254 26.6539 62.0141 26.0769 61.9914 25.4923C61.9499 24.3797 62.7165 23.3991 63.8042 23.1502L65.0354 22.8711V33.0617H62.0216V27.231H62.0254Z" fill="white"/>
<path id="Vector_13" d="M69.9227 25.2473V33.0655H66.8901V27.1933C66.8901 26.6012 66.8826 26.0317 66.8637 25.4924C66.8259 24.3798 67.5661 23.3955 68.65 23.1352L69.9265 22.875V24.8588C70.6327 24.1083 71.2823 23.5954 71.8715 23.3238C72.4569 23.0523 73.0045 22.9127 73.5105 22.9127C74.0166 22.9127 74.5302 23.0447 75.0061 23.3125C75.4857 23.5803 75.852 23.9838 76.1126 24.5307C76.3732 25.0775 76.5016 25.6772 76.5016 26.3297V33.0618H73.469V26.3485C73.469 25.7225 73.3104 25.2322 72.9969 24.8852C72.6835 24.5382 72.2945 24.3647 71.8299 24.3647C71.2143 24.3647 70.5799 24.6589 69.9227 25.2435V25.2473Z" fill="white"/>
<path id="Vector_14" d="M6.55673 18.7458C4.03397 18.7458 1.51939 18.6885 0 18.582V22.3416H0.319428C0.405431 22.1041 1.25318 19.0981 4.84893 19.0981C4.90217 21.1007 4.93085 23.3532 4.93085 25.8514C4.93085 28.3496 4.8899 30.6594 4.80799 33.0593H8.30955C8.22764 30.6553 8.18669 28.2513 8.18669 25.8514C8.18669 23.4515 8.21537 21.1007 8.26861 19.0981C11.8644 19.0981 12.7121 22.1041 12.7981 22.3416H13.1176V18.582C11.5982 18.6926 9.0836 18.7458 6.56083 18.7458H6.55673Z" fill="white"/>
<path id="Vector_15" d="M29.4695 27.3571C29.4409 28.0328 29.5146 28.6512 29.6866 29.2123C29.8586 29.7733 30.1125 30.2443 30.4442 30.6334C30.776 31.0183 31.1691 31.3132 31.6237 31.5139C32.0783 31.7146 32.5697 31.8129 33.0939 31.8129C33.5649 31.8129 34.0441 31.735 34.5355 31.5753C35.027 31.4156 35.4079 31.1985 35.6863 30.9242L35.8747 31.133C34.7157 32.6115 33.2209 33.3486 31.3985 33.3486C30.6818 33.3486 30.0019 33.2381 29.3671 33.0169C28.7323 32.7958 28.1795 32.4722 27.7085 32.0422C27.2375 31.6122 26.873 31.088 26.6109 30.4696C26.3488 29.8471 26.2178 29.1631 26.2178 28.4178C26.2178 27.6724 26.357 26.9352 26.6314 26.2513C26.9058 25.5674 27.299 24.9694 27.8027 24.4575C28.3064 23.9456 28.9126 23.5483 29.617 23.2658C30.3214 22.9832 31.079 22.8398 31.894 22.8398C33.2741 22.8398 34.343 23.2371 35.0966 24.0316C35.8502 24.8261 36.1368 25.936 35.9566 27.3571H29.4736H29.4695ZM30.0388 24.2609C29.7152 24.9572 29.5228 25.8745 29.4695 27.0049C30.0511 27.0171 32.6476 27.054 33.0325 27.0049C33.0612 26.5748 33.0325 25.7394 32.9383 25.2029C32.8482 24.6623 32.6639 24.1995 32.3773 23.8064C32.0947 23.4132 31.7507 23.2166 31.3534 23.2166C30.8005 23.2166 30.3623 23.5647 30.0388 24.265V24.2609Z" fill="white"/>
<path id="Vector_16" d="M81.408 27.3571C81.3793 28.0328 81.453 28.6512 81.6251 29.2123C81.7971 29.7733 82.051 30.2443 82.3827 30.6334C82.7144 31.0183 83.1076 31.3132 83.5622 31.5139C84.0168 31.7146 84.5082 31.8129 85.0324 31.8129C85.5034 31.8129 85.9826 31.735 86.474 31.5753C86.9654 31.4156 87.3463 31.1985 87.6248 30.9242L87.8132 31.133C86.6542 32.6115 85.1594 33.3486 83.3369 33.3486C82.6202 33.3486 81.9404 33.2381 81.3056 33.0169C80.6708 32.7958 80.118 32.4722 79.647 32.0422C79.176 31.6122 78.8115 31.088 78.5494 30.4696C78.2873 29.8471 78.1562 29.1631 78.1562 28.4178C78.1562 27.6724 78.2955 26.9352 78.5699 26.2513C78.8443 25.5674 79.2374 24.9694 79.7412 24.4575C80.2449 23.9456 80.851 23.5483 81.5554 23.2658C82.2598 22.9832 83.0175 22.8398 83.8325 22.8398C85.2126 22.8398 86.2815 23.2371 87.0351 24.0316C87.7886 24.8261 88.0753 25.936 87.8951 27.3571H81.4121H81.408ZM81.9773 24.2609C81.6537 24.9572 81.4612 25.8745 81.408 27.0049C81.9895 27.0171 84.586 27.054 84.971 27.0049C84.9997 26.5748 84.971 25.7394 84.8768 25.2029C84.7867 24.6623 84.6024 24.1995 84.3157 23.8064C84.0331 23.4132 83.6891 23.2166 83.2919 23.2166C82.739 23.2166 82.3008 23.5647 81.9773 24.265V24.2609Z" fill="white"/>
<path id="Vector_17" d="M17.8486 24.7463C18.5653 24.001 19.2165 23.4849 19.798 23.2024C20.3796 22.9198 20.9325 22.7764 21.4567 22.7764C21.7597 22.7764 22.0833 22.8297 22.4191 22.9321C22.759 23.0344 23.0784 23.2146 23.3815 23.4727C23.6846 23.7266 23.9467 24.0829 24.1678 24.5416C24.389 24.9961 24.4996 25.5654 24.4996 26.2411V33.0559H21.4321V26.2616C21.4321 25.7784 21.3338 25.3729 21.1413 25.0494C20.9488 24.7258 20.7236 24.5088 20.4697 24.4064C20.2158 24.304 19.9823 24.2508 19.7776 24.2508C19.1428 24.2508 18.4998 24.5456 17.8527 25.1436V33.0559H14.7853V22.6536C14.7853 21.8632 14.773 21.0891 14.7484 20.3233C14.7116 19.2626 15.4364 18.3288 16.4685 18.0872L17.8527 17.7637V24.7463H17.8486Z" fill="white"/>
</g>
</svg>
