<svg width="20" height="20" viewBox="0 0 20 20" fill="none" xmlns="http://www.w3.org/2000/svg">
<g id="Huge-icon/interface/outline/location 02">
<path id="Vector" d="M3.32438 14.3642L3.90131 14.6046L3.32438 14.3642ZM2.62994 16.0308L3.20686 16.2712L2.62994 16.0308ZM17.3735 16.0308L16.7966 16.2712V16.2712L17.3735 16.0308ZM16.6791 14.3642L17.256 14.1238V14.1238L16.6791 14.3642ZM13.3351 12.7135C12.9899 12.7135 12.7101 12.9934 12.7101 13.3385C12.7101 13.6837 12.9899 13.9635 13.3351 13.9635V12.7135ZM6.6684 13.9635C7.01358 13.9635 7.2934 13.6837 7.2934 13.3385C7.2934 12.9934 7.01358 12.7135 6.6684 12.7135V13.9635ZM15.2101 7.5978C15.2101 9.03113 14.3944 10.7457 13.2557 12.1321C12.694 12.816 12.0766 13.3912 11.4862 13.7902C10.8822 14.1982 10.3688 14.3802 10.0017 14.3802V15.6302C10.7285 15.6302 11.491 15.2954 12.1859 14.8259C12.8943 14.3474 13.5985 13.6843 14.2217 12.9255C15.4529 11.4264 16.4601 9.43727 16.4601 7.5978H15.2101ZM10.0017 14.3802C9.63471 14.3802 9.12122 14.1982 8.51731 13.7902C7.92682 13.3912 7.30942 12.816 6.74774 12.1321C5.60911 10.7457 4.7934 9.03113 4.7934 7.5978H3.5434C3.5434 9.43727 4.5506 11.4264 5.78176 12.9255C6.40499 13.6843 7.10919 14.3474 7.81753 14.8259C8.51245 15.2954 9.27501 15.6302 10.0017 15.6302V14.3802ZM4.7934 7.5978C4.7934 4.66086 7.13449 2.29688 10.0017 2.29688V1.04688C6.42565 1.04688 3.5434 3.98914 3.5434 7.5978H4.7934ZM10.0017 2.29688C12.869 2.29688 15.2101 4.66086 15.2101 7.5978H16.4601C16.4601 3.98914 13.5778 1.04688 10.0017 1.04688V2.29688ZM11.4601 7.50521C11.4601 8.31062 10.8071 8.96354 10.0017 8.96354V10.2135C11.4975 10.2135 12.7101 9.00098 12.7101 7.50521H11.4601ZM10.0017 8.96354C9.19632 8.96354 8.5434 8.31062 8.5434 7.50521H7.2934C7.2934 9.00098 8.50596 10.2135 10.0017 10.2135V8.96354ZM8.5434 7.50521C8.5434 6.69979 9.19632 6.04688 10.0017 6.04688V4.79688C8.50596 4.79688 7.2934 6.00944 7.2934 7.50521H8.5434ZM10.0017 6.04688C10.8071 6.04688 11.4601 6.69979 11.4601 7.50521H12.7101C12.7101 6.00944 11.4975 4.79688 10.0017 4.79688V6.04688ZM2.74746 14.1238L2.05301 15.7905L3.20686 16.2712L3.90131 14.6046L2.74746 14.1238ZM4.1684 18.9635H15.8351V17.7135H4.1684V18.9635ZM17.9504 15.7905L17.256 14.1238L16.1022 14.6046L16.7966 16.2712L17.9504 15.7905ZM15.1406 12.7135H13.3351V13.9635H15.1406V12.7135ZM4.86284 13.9635H6.6684V12.7135H4.86284V13.9635ZM17.256 14.1238C16.9002 13.2698 16.0658 12.7135 15.1406 12.7135V13.9635C15.5611 13.9635 15.9404 14.2164 16.1022 14.6046L17.256 14.1238ZM15.8351 18.9635C17.4703 18.9635 18.5794 17.3 17.9504 15.7905L16.7966 16.2712C17.0825 16.9574 16.5784 17.7135 15.8351 17.7135V18.9635ZM2.05301 15.7905C1.42406 17.3 2.53312 18.9635 4.1684 18.9635V17.7135C3.42509 17.7135 2.92097 16.9574 3.20686 16.2712L2.05301 15.7905ZM3.90131 14.6046C4.06304 14.2164 4.44232 13.9635 4.86284 13.9635V12.7135C3.9377 12.7135 3.10329 13.2698 2.74746 14.1238L3.90131 14.6046Z" fill="#3C3C4C"/>
</g>
</svg>
